<svg width="760" height="720" viewBox="0 0 760 720" fill="none" xmlns="http://www.w3.org/2000/svg">
  <rect width="760" height="720" fill="#E8DCCB"/>
  <rect x="42" y="42" width="676" height="636" rx="34" fill="#F7F0E5" stroke="#161311" stroke-width="5"/>
  <rect x="99" y="166" width="562" height="391" rx="26" fill="#E8DCCB" stroke="#161311" stroke-width="5"/>
  <path d="M193 365C251 330 311 313 372 311C428 309 483 319 537 339" stroke="#8F1D19" stroke-width="6" stroke-linecap="round"/>
  <path d="M202 395C262 379 322 371 381 372C434 372 486 379 538 393" stroke="#161311" stroke-width="5" stroke-linecap="round"/>
  <path d="M239 425C286 418 324 399 352 369C368 350 381 325 392 294" stroke="#161311" stroke-width="6" stroke-linecap="round"/>
  <path d="M389 294C423 302 452 318 478 344C510 376 531 414 541 459" stroke="#161311" stroke-width="6" stroke-linecap="round"/>
  <path d="M310 429C345 452 386 466 432 469" stroke="#8F1D19" stroke-width="5" stroke-linecap="round"/>
  <path d="M424 285L515 238" stroke="#8F1D19" stroke-width="5" stroke-linecap="round"/>
  <path d="M126 121H336" stroke="#8F1D19" stroke-width="6" stroke-linecap="round"/>
  <path d="M126 149H289" stroke="#161311" stroke-width="4" stroke-linecap="round"/>
  <text x="100" y="622" fill="#8F1D19" font-family="Manrope, sans-serif" font-size="26" letter-spacing="4">ADD A FAVORITE PHOTO OR ARTWORK HERE</text>
</svg>
