<svg width="760" height="720" viewBox="0 0 760 720" fill="none" xmlns="http://www.w3.org/2000/svg">
  <rect width="760" height="720" fill="#E8DCCB"/>
  <rect x="42" y="42" width="676" height="636" rx="34" fill="#F7F0E5" stroke="#161311" stroke-width="5"/>
  <rect x="414" y="134" width="192" height="366" fill="#F7F0E5" stroke="#161311" stroke-width="5"/>
  <path d="M436 166V468" stroke="#8F1D19" stroke-width="3" stroke-linecap="round"/>
  <path d="M466 166V468" stroke="#161311" stroke-width="3" stroke-linecap="round"/>
  <path d="M496 166V468" stroke="#8F1D19" stroke-width="3" stroke-linecap="round"/>
  <path d="M526 166V468" stroke="#161311" stroke-width="3" stroke-linecap="round"/>
  <path d="M556 166V468" stroke="#8F1D19" stroke-width="3" stroke-linecap="round"/>
  <path d="M586 166V468" stroke="#161311" stroke-width="3" stroke-linecap="round"/>
  <circle cx="486" cy="373" r="47" fill="#E8DCCB" stroke="#161311" stroke-width="5"/>
  <circle cx="544" cy="322" r="59" fill="#E8DCCB" stroke="#161311" stroke-width="5"/>
  <path d="M448 498C457 432 477 402 497 402C517 402 536 433 542 498" stroke="#161311" stroke-width="6" stroke-linecap="round"/>
  <path d="M490 498C498 410 523 375 551 375C579 375 603 411 610 498" stroke="#161311" stroke-width="6" stroke-linecap="round"/>
  <path d="M111 156H305" stroke="#8F1D19" stroke-width="6" stroke-linecap="round"/>
  <path d="M111 194H267" stroke="#161311" stroke-width="4" stroke-linecap="round"/>
  <path d="M111 256L149 230" stroke="#8F1D19" stroke-width="5" stroke-linecap="round"/>
  <path d="M111 309L149 283" stroke="#8F1D19" stroke-width="5" stroke-linecap="round"/>
  <path d="M111 362L149 336" stroke="#8F1D19" stroke-width="5" stroke-linecap="round"/>
  <path d="M198 280C172 349 173 440 209 532" stroke="#161311" stroke-width="5" stroke-linecap="round"/>
  <path d="M209 532L189 556" stroke="#161311" stroke-width="5" stroke-linecap="round"/>
  <text x="111" y="611" fill="#8F1D19" font-family="Manrope, sans-serif" font-size="26" letter-spacing="4">QUESTIONS THAT KEEP RETURNING</text>
</svg>
