<svg width="760" height="720" viewBox="0 0 760 720" fill="none" xmlns="http://www.w3.org/2000/svg">
  <rect width="760" height="720" fill="#E8DCCB"/>
  <rect x="42" y="42" width="676" height="636" rx="34" fill="#F7F0E5" stroke="#161311" stroke-width="5"/>
  <rect x="116" y="458" width="528" height="107" rx="20" fill="#E8DCCB" stroke="#161311" stroke-width="5"/>
  <circle cx="244" cy="269" r="59" fill="#F7F0E5" stroke="#161311" stroke-width="5"/>
  <circle cx="382" cy="223" r="71" fill="#F7F0E5" stroke="#8F1D19" stroke-width="6"/>
  <circle cx="520" cy="276" r="53" fill="#F7F0E5" stroke="#161311" stroke-width="5"/>
  <path d="M197 435C203 362 222 332 245 332C269 332 288 363 293 435" stroke="#161311" stroke-width="6" stroke-linecap="round"/>
  <path d="M321 435C333 336 360 297 391 297C422 297 448 337 457 435" stroke="#8F1D19" stroke-width="7" stroke-linecap="round"/>
  <path d="M476 435C482 373 498 345 520 345C541 345 557 374 562 435" stroke="#161311" stroke-width="6" stroke-linecap="round"/>
  <path d="M610 183L654 144" stroke="#8F1D19" stroke-width="5" stroke-linecap="round"/>
  <path d="M603 232L659 232" stroke="#8F1D19" stroke-width="5" stroke-linecap="round"/>
  <path d="M109 150H193" stroke="#161311" stroke-width="4" stroke-linecap="round"/>
  <path d="M109 178H163" stroke="#161311" stroke-width="4" stroke-linecap="round"/>
  <text x="116" y="626" fill="#8F1D19" font-family="Manrope, sans-serif" font-size="26" letter-spacing="4">EDITORIAL WORK AND COMMUNITY PROJECTS</text>
</svg>
